<svg id="Capa_1" enable-background="new 0 0 497 497" height="512" viewBox="0 0 497 497" width="512" xmlns="http://www.w3.org/2000/svg"><g><g><path d="m458.577 171.614-5.242-1.207 1.21-5.229c7.802-33.705-20.848-64.676-54.517-60.05-27.333 3.756-47.624 18.687-65.935 38.956-53.727 0-171.186 0-171.186 0v226.086h85.593c7.797 33.883 38.208 68.924 58.538 87.832 49.006 45.582 99.322 12.581 97.869-28.898l-.188-5.362 5.376-.187c53.341-1.858 81.369-83.267-23.892-127.597 28.197-2.456 56.418-10.978 75.028-22.578 11.327-7.058 20.574-16.18 27.56-26.57 18.913-28.129 3.614-67.407-30.214-75.196z" fill="#ffb5c0"/><path d="m332.569 44.184c-14.969-30.402-60.392-36.824-84.069-11.501-23.677-25.323-69.1-18.901-84.069 11.501-13.676 27.777-10.747 70.087-1.524 99.901-18.311-20.269-38.603-35.2-65.935-38.956-33.669-4.626-62.319 26.344-54.517 60.05l1.21 5.229-5.242 1.207c-33.828 7.789-49.127 47.067-30.215 75.197 6.986 10.39 16.233 19.512 27.56 26.57 18.61 11.599 46.832 20.121 75.028 22.578-105.26 44.328-77.232 125.737-23.892 127.595l5.376.187-.188 5.362c-1.452 41.479 48.863 74.48 97.869 28.898 20.33-18.908 50.741-53.949 58.538-87.832-2.338-9.354-4.007-18.808-5.03-28.296l66.706-178.594c7.405-6.871 15.377-13.297 23.917-19.195 9.224-29.814 12.153-72.124-1.523-99.901z" fill="#ff8e9e"/></g><g><path d="m158.731 227.455-66.513-37.968c-3.597-2.053-8.178-.802-10.231 2.795s-.802 8.178 2.795 10.231l66.513 37.968z" fill="#ea5b70"/><path d="m415.013 192.282c-2.053-3.597-6.634-4.849-10.231-2.795l-66.513 37.968 7.436 13.027 66.513-37.968c3.597-2.054 4.849-6.634 2.795-10.232z" fill="#ff8e9e"/><path d="m133.088 378.192c-2.868 2.989-2.769 7.737.219 10.604 2.989 2.868 7.737 2.77 10.604-.219l56.842-59.243-10.824-10.385z" fill="#ea5b70"/><path d="m307.066 318.945-10.824 10.385 56.846 59.246c2.868 2.989 7.616 3.087 10.604.219s3.087-7.615.219-10.604z" fill="#ff8e9e"/><path d="m248.5 77.833c-4.142 0-7.5 3.358-7.5 7.5v64.167h15v-64.167c0-4.142-3.358-7.5-7.5-7.5z" fill="#ea5b70"/></g><g><path d="m310.176 163.281h-66.706v178.594c1.667.083 3.343.126 5.03.126 55.228 0 100-44.771 100-100 0-31.958-14.991-60.414-38.324-78.72z" fill="#ffdbe0"/><path d="m248.5 142c-55.228 0-100 44.771-100 100 0 53.541 42.078 97.254 94.97 99.874 0-66.695 16.734-132.221 66.706-178.594-16.991-13.33-38.405-21.28-61.676-21.28z" fill="#ffb5c0"/></g><g fill="#ff8e9e"><ellipse cx="185.5" cy="262.191" rx="15.927" ry="20" transform="matrix(.002 -1 1 .002 -77.095 447.118)"/><path d="m311.535 246.535c-11.046-.024-20.015 7.087-20.035 15.883-.019 8.796 8.919 15.947 19.965 15.971s20.016-7.087 20.035-15.883-8.919-15.946-19.965-15.971z"/></g><g fill="#313d40"><path d="m193.965 231.454c-4.142 0-7.5 3.358-7.5 7.5v12c0 4.142 3.358 7.5 7.5 7.5s7.5-3.358 7.5-7.5v-12c0-4.142-3.358-7.5-7.5-7.5z"/><path d="m302.862 231.454c-4.142 0-7.5 3.358-7.5 7.5v12c0 4.142 3.358 7.5 7.5 7.5s7.5-3.358 7.5-7.5v-12c0-4.142-3.358-7.5-7.5-7.5z"/><path d="m274.596 251.336c-4.142 0-7.5 3.358-7.5 7.5 0 3.033-2.467 5.5-5.5 5.5s-5.5-2.467-5.5-5.5c0-4.142-3.358-7.5-7.5-7.5s-7.5 3.358-7.5 7.5c0 3.033-2.467 5.5-5.5 5.5s-5.5-2.467-5.5-5.5c0-4.142-3.358-7.5-7.5-7.5s-7.5 3.358-7.5 7.5c0 17.262 20.165 26.802 33.5 15.837 13.333 10.964 33.5 1.427 33.5-15.837 0-4.142-3.358-7.5-7.5-7.5z"/></g></g></svg>