<svg id="Capa_1" enable-background="new 0 0 512 512" height="512" viewBox="0 0 512 512" width="512" xmlns="http://www.w3.org/2000/svg"><g><path d="m507.614 225.269c0-62.206-50.428-112.634-112.634-112.634-9.089 0-17.924 1.084-26.39 3.117.028-1.036.045-2.074.045-3.117-.001-62.207-50.429-112.635-112.635-112.635s-112.634 50.428-112.634 112.634c0 1.042.017 2.081.045 3.117-8.466-2.033-17.301-3.117-26.39-3.117-62.206 0-112.634 50.428-112.634 112.634 0 46.987 28.775 87.247 69.661 104.138-15.249 19.216-24.361 43.522-24.361 69.959-.001 62.207 50.427 112.635 112.633 112.635 39.062 0 73.476-19.888 93.68-50.087 20.203 30.199 54.617 50.087 93.68 50.087 62.206 0 112.634-50.428 112.634-112.634 0-26.437-9.112-50.743-24.362-69.959 40.887-16.891 69.662-57.151 69.662-104.138z" fill="#ffd2e7"/><path d="m256 .002c-4.902 0-9.741.319-14.479.925 55.366 7.1 98.154 54.4 98.154 111.707v.031c-.001 1.555 1.41 2.734 2.931 2.413 7.548-1.594 15.382-2.444 23.416-2.444.873 0 1.747.01 2.61.041v-.041c0-62.209-50.423-112.632-112.632-112.632zm251.611 225.264c0-62.199-50.423-112.632-112.632-112.632-4.891 0-9.711.319-14.437.925 55.355 7.131 98.113 54.43 98.113 111.707 0 43.186-24.301 80.687-59.974 99.59-4.769 2.527-6.482 8.571-3.534 13.093 11.516 17.665 18.213 38.757 18.213 61.419 0 57.308-42.788 104.607-98.164 111.707 4.747.606 9.577.925 14.489.925 62.199 0 112.632-50.423 112.632-112.632 0-26.439-9.115-50.742-24.364-69.957 40.886-16.894 69.658-57.154 69.658-104.145z" fill="#fec0dd"/><g><g><path d="m256 182.755c-4.256 0-7.707-3.45-7.707-7.707v-31.541c0-4.256 3.451-7.707 7.707-7.707s7.707 3.45 7.707 7.707v31.541c0 4.257-3.451 7.707-7.707 7.707z" fill="#fea3ce"/></g><g><path d="m256 394.059c-4.256 0-7.707-3.45-7.707-7.707v-36.054c0-4.256 3.451-7.707 7.707-7.707s7.707 3.451 7.707 7.707v36.054c0 4.257-3.451 7.707-7.707 7.707z" fill="#fea3ce"/></g></g><g><g><path d="m214.322 200.437c-2.663 0-5.254-1.382-6.681-3.855l-19.026-32.954c-2.128-3.686-.866-8.4 2.821-10.528 3.686-2.128 8.4-.866 10.528 2.821l19.026 32.954c2.128 3.686.866 8.4-2.821 10.528-1.215.701-2.54 1.034-3.847 1.034z" fill="#fea3ce"/></g><g><path d="m316.718 377.793c-2.663 0-5.254-1.382-6.681-3.855l-21.003-36.378c-2.128-3.686-.866-8.4 2.821-10.528 3.686-2.129 8.399-.866 10.528 2.821l21.002 36.378c2.128 3.686.866 8.4-2.821 10.528-1.213.701-2.538 1.034-3.846 1.034z" fill="#fea3ce"/></g></g><g><g><path d="m176.583 272.637h-42.005c-4.256 0-7.707-3.45-7.707-7.707 0-4.256 3.451-7.707 7.707-7.707h42.005c4.256 0 7.707 3.45 7.707 7.707 0 4.256-3.451 7.707-7.707 7.707z" fill="#fea3ce"/></g><g><path d="m377.422 272.637h-42.005c-4.256 0-7.707-3.451-7.707-7.707s3.451-7.707 7.707-7.707h42.005c4.256 0 7.707 3.451 7.707 7.707s-3.451 7.707-7.707 7.707z" fill="#fea3ce"/></g></g><g><g><path d="m195.282 377.793c-1.308 0-2.633-.333-3.846-1.034-3.686-2.128-4.949-6.841-2.821-10.528l23.081-39.977c2.128-3.686 6.841-4.95 10.528-2.821 3.686 2.128 4.949 6.841 2.821 10.528l-23.081 39.977c-1.428 2.472-4.019 3.855-6.682 3.855z" fill="#fea3ce"/></g><g><path d="m295.701 203.861c-1.308 0-2.633-.333-3.846-1.034-3.686-2.128-4.949-6.841-2.821-10.528l21.003-36.377c2.128-3.686 6.841-4.95 10.528-2.821 3.686 2.128 4.949 6.841 2.821 10.528l-21.002 36.377c-1.429 2.472-4.019 3.855-6.683 3.855z" fill="#fea3ce"/></g></g><g><path d="m178.812 228.078c-1.308 0-2.633-.333-3.846-1.034l-27.974-16.151c-3.686-2.128-4.949-6.841-2.821-10.528 2.128-3.686 6.841-4.95 10.528-2.821l27.974 16.151c3.686 2.128 4.949 6.841 2.821 10.528-1.428 2.473-4.019 3.855-6.682 3.855z" fill="#fea3ce"/></g><g><path d="m361.147 333.35c-1.308 0-2.633-.333-3.846-1.034l-24.191-13.967c-3.686-2.128-4.949-6.842-2.821-10.528 2.128-3.687 6.842-4.95 10.528-2.821l24.191 13.967c3.686 2.128 4.949 6.842 2.821 10.528-1.428 2.473-4.018 3.855-6.682 3.855z" fill="#fea3ce"/></g><g><path d="m150.853 333.35c-2.663 0-5.254-1.382-6.681-3.855-2.128-3.686-.866-8.399 2.821-10.528l27.974-16.151c3.684-2.127 8.4-.866 10.528 2.821 2.128 3.686.866 8.399-2.821 10.528l-27.974 16.151c-1.214.7-2.54 1.034-3.847 1.034z" fill="#fea3ce"/></g><g><path d="m335.137 226.953c-2.663 0-5.254-1.382-6.681-3.855-2.128-3.686-.865-8.4 2.821-10.528l26.024-15.025c3.686-2.129 8.4-.866 10.528 2.821 2.128 3.686.865 8.4-2.821 10.528l-26.024 15.025c-1.214.7-2.539 1.034-3.847 1.034z" fill="#fea3ce"/></g><path d="m344.6 238.617c.175-15.33-8.148-29.747-21.512-37.26-8.613-4.842-18-6.306-27.379-5.204-3.735-8.674-9.696-16.071-18.196-21.109-13.189-7.817-29.836-7.817-43.025 0-8.5 5.038-14.461 12.436-18.196 21.109-9.379-1.102-18.766.362-27.379 5.204-13.364 7.513-21.688 21.93-21.512 37.26.113 9.88 3.539 18.742 9.183 26.313-5.644 7.571-9.07 16.433-9.183 26.313-.175 15.331 8.148 29.747 21.512 37.26 8.613 4.842 18 6.306 27.379 5.204 3.735 8.674 9.696 16.071 18.196 21.109 13.189 7.817 29.836 7.817 43.025 0 8.5-5.038 14.461-12.435 18.196-21.109 9.379 1.102 18.766-.362 27.379-5.204 13.364-7.513 21.688-21.93 21.512-37.26-.113-9.88-3.539-18.742-9.183-26.313 5.644-7.571 9.07-16.433 9.183-26.313z" fill="#f5f8f9"/><path d="m335.421 264.93c5.641 7.573 9.063 16.431 9.176 26.316.175 15.332-8.149 29.748-21.507 37.26-8.611 4.84-18.003 6.299-27.385 5.199-3.73 8.673-9.69 16.071-18.188 21.106-9.885 5.857-21.702 7.327-32.553 4.408 3.627-.976 7.233-2.33 10.471-4.408 14.902-9.565 20.866-22.552 24.63-31.34.623-1.454 2.063-2.385 3.645-2.365l1.432.018c6.446.13 12.947-.121 19.027-2.575 10.247-4.136 18.471-16.291 18.345-27.303-.102-8.95-2.917-17.058-7.636-24.132-.886-1.328-.879-3.052.019-4.371 8.584-12.61 11.221-31.895 1.204-44.532-2.724-3.436-6.216-6.21-10.038-8.334-7.667-4.261-16.763-6.131-25.496-5.563-1.581.103-3.064-.742-3.762-2.164-4.383-8.927-10.748-22.368-21.371-27.101-3.514-1.565-6.844-3.432-10.471-4.408 10.851-2.918 22.668-1.449 32.553 4.408 8.498 5.035 14.458 12.433 18.188 21.106 9.382-1.1 18.774.359 27.385 5.199 13.358 7.512 21.682 21.928 21.507 37.26-.112 9.885-3.534 18.743-9.175 26.316z" fill="#e8edf2"/><circle cx="256" cy="264.93" fill="#fea3ce" r="46.744"/><path d="m302.744 264.93c0 25.813-20.932 46.744-46.744 46.744-11.653 0-22.319-4.264-30.498-11.334 3.206.688 6.535 1.058 9.947 1.058 25.813 0 46.744-20.931 46.744-46.744 0-14.16-6.299-26.84-16.246-35.41 21.034 4.563 36.797 23.285 36.797 45.686z" fill="#fe7ab6"/><g fill="#fee97d"><circle cx="256" cy="124.774" r="18.734"/><circle cx="256" cy="405.087" r="18.734"/></g><g fill="#fedf30"><path d="m274.733 124.77c0 10.347-8.385 18.743-18.733 18.743-6.761 0-12.68-3.586-15.968-8.95.298.011.596.021.894.021 10.348 0 18.733-8.395 18.733-18.743 0-3.586-1.007-6.936-2.764-9.782 9.936.461 17.838 8.671 17.838 18.711z"/><path d="m237.266 405.099c0-10.337 8.385-18.733 18.733-18.733 6.761 0 12.68 3.586 15.968 8.95-.298-.01-.596-.021-.894-.021-10.348 0-18.733 8.395-18.733 18.733 0 3.586 1.007 6.946 2.764 9.793-9.936-.462-17.838-8.673-17.838-18.722z"/></g><g fill="#fee97d"><circle cx="134.621" cy="194.852" r="18.734"/><circle cx="377.379" cy="335.008" r="18.734"/></g><g fill="#fedf30"><path d="m143.984 178.627c8.961 5.174 12.039 16.633 6.866 25.594-3.381 5.856-9.446 9.188-15.735 9.354.158-.253.316-.506.465-.764 5.174-8.961 2.096-20.421-6.866-25.594-3.106-1.793-6.51-2.596-9.854-2.497 5.368-8.374 16.429-11.113 25.124-6.093z"/><path d="m368.022 351.239c-8.952-5.169-12.03-16.628-6.857-25.589 3.381-5.856 9.446-9.188 15.735-9.354-.158.253-.316.506-.465.764-5.174 8.961-2.096 20.421 6.857 25.589 3.106 1.793 6.519 2.601 9.863 2.503-5.368 8.374-16.43 11.112-25.133 6.087z"/></g><g fill="#fee97d"><circle cx="134.621" cy="335.008" r="18.734"/><circle cx="377.379" cy="194.852" r="18.734"/></g><g fill="#fedf30"><path d="m125.251 318.788c8.961-5.174 20.424-2.11 25.598 6.851 3.381 5.856 3.234 12.775.233 18.304-.14-.263-.28-.526-.429-.785-5.174-8.961-16.637-12.025-25.598-6.851-3.106 1.793-5.503 4.34-7.09 7.285-4.568-8.836-1.408-19.785 7.286-24.804z"/><path d="m386.757 211.07c-8.952 5.169-20.415 2.105-25.589-6.857-3.381-5.856-3.235-12.774-.233-18.304.14.263.28.526.429.785 5.174 8.961 16.637 12.025 25.589 6.857 3.106-1.793 5.512-4.345 7.099-7.29 4.567 8.836 1.408 19.785-7.295 24.809z"/></g></g></svg>