<svg height="512" viewBox="0 0 512 512" width="512" xmlns="http://www.w3.org/2000/svg"><g id="flat"><path d="m256 270.006a23.414 23.414 0 0 0 14.624-5.13l12.991-10.393a167.107 167.107 0 0 0 62.717-130.49 94.382 94.382 0 0 0 -73.908-92.134l-16.424 16.423-16.424-16.423a94.382 94.382 0 0 0 -73.908 92.134 167.107 167.107 0 0 0 62.717 130.49l12.991 10.393a23.414 23.414 0 0 0 14.624 5.13z" fill="#ff7bac"/><path d="m256 270.006a23.406 23.406 0 0 0 -.36-15.494l-5.869-15.566a167.108 167.108 0 0 0 -104.723-99.971 94.382 94.382 0 0 0 -110.464 41.819l10.545 20.695-20.7 10.545a94.384 94.384 0 0 0 64.791 98.766 167.109 167.109 0 0 0 143.48-19.328l13.9-9.143a23.415 23.415 0 0 0 9.4-12.323z" fill="#ffa1c4"/><path d="m256 270.006a23.408 23.408 0 0 0 -14.847-4.446l-16.618.772a167.109 167.109 0 0 0 -127.435 68.705 94.382 94.382 0 0 0 5.637 117.98l22.941-3.634 3.634 22.941a94.382 94.382 0 0 0 113.948-31.1 167.109 167.109 0 0 0 25.957-142.424l-4.4-16.043a23.4 23.4 0 0 0 -8.817-12.751z" fill="#ff77a9"/><path d="m256 270.006a23.4 23.4 0 0 0 -8.816 12.746l-4.4 16.043a167.109 167.109 0 0 0 25.961 142.433 94.382 94.382 0 0 0 113.948 31.1l3.634-22.941 22.941 3.634a94.382 94.382 0 0 0 5.637-117.98 167.109 167.109 0 0 0 -127.439-68.7l-16.618-.772a23.408 23.408 0 0 0 -14.848 4.437z" fill="#ff5594"/><path d="m256 270.006a23.415 23.415 0 0 0 9.4 12.323l13.9 9.143a167.109 167.109 0 0 0 143.48 19.328 94.384 94.384 0 0 0 64.787-98.762l-20.7-10.545 10.545-20.695a94.382 94.382 0 0 0 -110.464-41.819 167.108 167.108 0 0 0 -104.723 99.971l-5.869 15.566a23.406 23.406 0 0 0 -.356 15.49z" fill="#ffa1c4"/><path d="m256 270.006a23.414 23.414 0 0 0 14.624-5.13l12.991-10.393a167.107 167.107 0 0 0 62.717-130.49 94.382 94.382 0 0 0 -73.908-92.134l-16.424 16.423z" fill="#ff77a9"/><g fill="#ff156c"><path d="m195.816 280.399h32v16.001h-32z" transform="matrix(.921 -.391 .391 .921 -95.849 105.691)"/><path d="m252.183 298.797h16v32h-16z" transform="matrix(.996 -.087 .087 .996 -26.447 23.875)"/><path d="m294.77 261.777h16v32h-16z" transform="matrix(.225 -.974 .974 .225 -35.994 510.303)"/><path d="m216.509 214.753h16.001v32h-16.001z" transform="matrix(.755 -.656 .656 .755 -96.318 203.897)"/><path d="m264.722 217.835h32v16h-32z" transform="matrix(.515 -.857 .857 .515 -57.436 350.156)"/></g><path d="m248 173.645h16v96h-16z" fill="#e6e6e6"/><circle cx="256" cy="165.644" fill="#ccc" r="16"/><path d="m202.349 206.812h16v96h-16z" fill="#e6e6e6" transform="matrix(.309 -.951 .951 .309 -96.993 376.123)"/><circle cx="157.09" cy="237.506" fill="#ccc" r="16"/><path d="m179.787 300.477h95.999v16h-95.999z" fill="#e6e6e6" transform="matrix(.588 -.809 .809 .588 -155.666 311.448)"/><circle cx="194.87" cy="353.782" fill="#ccc" r="16"/><path d="m276.214 260.477h16v95.999h-16z" fill="#e6e6e6" transform="matrix(.809 -.588 .588 .809 -127.038 225.971)"/><circle cx="317.13" cy="353.782" fill="#ccc" r="16"/><path d="m253.651 246.812h96v16h-96z" fill="#e6e6e6" transform="matrix(.951 -.309 .309 .951 -63.978 105.689)"/><circle cx="354.91" cy="237.506" fill="#ccc" r="16"/></g></svg>